<svg xmlns="http://www.w3.org/2000/svg" width="24" height="24" viewBox="0 0 24 24">
  <circle cx="12" cy="12" r="11" fill="#0052B4"/>
  <g fill="#FFDA44">
    <path d="M12,6 L12.5,7.5 L14,7.5 L12.75,8.5 L13.5,10 L12,9 L10.5,10 L11.25,8.5 L10,7.5 L11.5,7.5 Z"/>
    <path d="M12,11 L12.5,12.5 L14,12.5 L12.75,13.5 L13.5,15 L12,14 L10.5,15 L11.25,13.5 L10,12.5 L11.5,12.5 Z"/>
    <path d="M7,8.5 L7.5,10 L9,10 L7.75,11 L8.5,12.5 L7,11.5 L5.5,12.5 L6.25,11 L5,10 L6.5,10 Z"/>
    <path d="M17,8.5 L17.5,10 L19,10 L17.75,11 L18.5,12.5 L17,11.5 L15.5,12.5 L16.25,11 L15,10 L16.5,10 Z"/>
  </g>
</svg> 